<svg xmlns="http://www.w3.org/2000/svg" width="95" height="95" viewBox="0 0 95 95">
  <g id="Groupe_239" data-name="Groupe 239" transform="translate(-805 -593)">
    <g id="Groupe_150" data-name="Groupe 150" transform="translate(306.417 222.417)">
      <circle id="Ellipse_20" data-name="Ellipse 20" cx="47.5" cy="47.5" r="47.5" transform="translate(498.583 370.583)" fill="#ffd200"/>
    </g>
    <g id="map" transform="translate(826 614)">
      <path id="Tracé_32" data-name="Tracé 32" d="M53.943,35.662V18.269a.861.861,0,0,0-.616-.825L45.28,15.056a11.989,11.989,0,0,0,1.011-4.44,10.616,10.616,0,1,0-21.233,0,11.989,11.989,0,0,0,1.011,4.44l-7.8,2.315L1.106,12.279A.861.861,0,0,0,0,13.1V47.918a.861.861,0,0,0,.616.825L18.01,53.9l.013,0,.008,0a.842.842,0,0,0,.1.022l.027,0a.785.785,0,0,0,.222,0l.027,0a.876.876,0,0,0,.1-.022l.008,0,.008,0,16.806-4.986a.856.856,0,0,0,.7,0l16.814,4.989a.861.861,0,0,0,1.106-.825V35.668s0,0,0-.007Zm-1.722-16.75V34.522L36.536,29.868V27.42a49.923,49.923,0,0,0,8.02-10.783l7.666,2.274ZM35.675,1.722a8.9,8.9,0,0,1,8.895,8.895,11.219,11.219,0,0,1-1.2,4.532.86.86,0,0,0-.088.187c-2.074,4.378-6.086,8.866-7.612,10.49-1.525-1.622-5.534-6.1-7.608-10.48a.861.861,0,0,0-.1-.2,11.215,11.215,0,0,1-1.191-4.524,8.9,8.9,0,0,1,8.895-8.895Zm-.861,25.7v2.448L19.128,34.522V18.912l7.666-2.274A49.922,49.922,0,0,0,34.814,27.42ZM1.722,31.664l5.947,1.765a.861.861,0,1,0,.49-1.65l-6.437-1.91V14.257l15.685,4.654V34.522l-5.947-1.765a.861.861,0,1,0-.49,1.65l6.437,1.91V51.929L1.722,47.275V31.664ZM36.536,47.275V41.043a.861.861,0,1,0-1.722,0v6.232L19.128,51.929V36.318l15.686-4.654V37.6a.861.861,0,1,0,1.722,0V31.664l15.686,4.654V51.929Z" fill="#fff"/>
      <path id="Tracé_33" data-name="Tracé 33" d="M264.357,52.051a6.026,6.026,0,1,0-6.026-6.026A6.032,6.032,0,0,0,264.357,52.051Zm0-10.33a4.3,4.3,0,1,1-4.3,4.3A4.309,4.309,0,0,1,264.357,41.722Z" transform="translate(-228.682 -35.409)" fill="#fff"/>
    </g>
  </g>
</svg>
