<svg xmlns="http://www.w3.org/2000/svg" width="35.595" height="35.598" viewBox="0 0 35.595 35.598"><defs><style>.a{fill:#fff;}.b{fill:#ffc700;}</style></defs><g transform="translate(0)"><path class="a" d="M30.391,5.215A17.795,17.795,0,0,0,4.1,29.148,6.809,6.809,0,0,1,1.25,32.309a1.669,1.669,0,0,0,.482,3.146,9.2,9.2,0,0,0,1.407.105A10.625,10.625,0,0,0,9.4,33.483,17.793,17.793,0,0,0,30.391,5.215ZM28.953,28.945A15.763,15.763,0,0,1,9.822,31.4a1.012,1.012,0,0,0-1.234.158.334.334,0,0,0-.083.06,8.689,8.689,0,0,1-5.366,1.912H3.132a9.964,9.964,0,0,0,3.056-4.056,1.04,1.04,0,0,0,.053-.655,1.057,1.057,0,0,0-.248-.572,15.764,15.764,0,1,1,22.962.7Z" transform="translate(-0.019)"/><ellipse class="b" cx="1.249" cy="1.249" rx="1.249" ry="1.249" transform="translate(16.539 16.55)"/><ellipse class="b" cx="1.249" cy="1.249" rx="1.249" ry="1.249" transform="translate(22.981 16.55)"/><ellipse class="b" cx="1.249" cy="1.249" rx="1.249" ry="1.249" transform="translate(10.097 16.55)"/></g></svg>