<svg id="Groupe_150" data-name="Groupe 150" xmlns="http://www.w3.org/2000/svg" width="95" height="95" viewBox="0 0 95 95">
  <circle id="Ellipse_20" data-name="Ellipse 20" cx="47.5" cy="47.5" r="47.5" fill="#ffd200"/>
  <g id="shirt" transform="translate(16.584 23.848) rotate(-9)">
    <g id="Groupe_149" data-name="Groupe 149" transform="translate(0 0)">
      <g id="Groupe_148" data-name="Groupe 148">
        <path id="Tracé_30" data-name="Tracé 30" d="M.872,1.744h4.5A.872.872,0,1,0,5.371,0H.872a.872.872,0,1,0,0,1.744Z" transform="translate(22.902 2.999)" fill="#fff"/>
        <path id="Tracé_31" data-name="Tracé 31" d="M51.959,20.787l-3-12.363a6.6,6.6,0,0,0-3.629-4.23c-2.077-.883-8.646-3.376-10.29-4A.868.868,0,0,0,34.49,0H17.619c-.028,0-.056,0-.083,0l-.036,0-.046.007-.042.01-.037.009-.043.014L17.31.056C16.971.184,8.985,3.2,6.655,4.194A6.592,6.592,0,0,0,3.033,8.4h0l0,.015,0,.012L.893,17.209h0L.025,20.787A.872.872,0,0,0,.55,21.8l8.573,3.406V54.36a.872.872,0,0,0,.872.872H41.988a.872.872,0,0,0,.872-.872V34.21a.872.872,0,1,0-1.744,0V49.943H19.683a.872.872,0,0,0,0,1.744H41.116v1.8H10.868v-1.8h5.909a.872.872,0,0,0,0-1.744H10.868V14.119a.872.872,0,0,0-.126-.451l-4.4-7.274a4.211,4.211,0,0,1,.994-.6C9.123,5.04,14.477,3,16.814,2.11c.561,5.154,4.564,9.3,9.24,9.3S34.71,7.288,35.29,2.155c2.4.91,7.6,2.9,9.357,3.644a4.213,4.213,0,0,1,.994.6l-4.4,7.273a.872.872,0,0,0-.126.451V31.3a.872.872,0,0,0,1.744,0V25.209L51.434,21.8A.872.872,0,0,0,51.959,20.787ZM9.123,23.332,1.9,20.462l.448-1.847,6.776,2.842v1.875Zm0-8.97v5.2L2.764,16.9,4.72,8.839A4.789,4.789,0,0,1,5.162,7.81Zm16.931-4.7c-3.447,0-7.124-3.146-7.527-7.92H33.582C33.178,6.518,29.5,9.664,26.054,9.664Zm16.806,4.7L46.823,7.81a5.218,5.218,0,0,1,.394.873v0l.015.047,0,.008.01.031,0,.011.006.02,0,.009,0,.012,0,.006,0,.006L49.22,16.9l-6.36,2.667v-5.2Zm0,8.97V21.457l6.776-2.842.448,1.847Z" fill="#fff"/>
      </g>
    </g>
  </g>
</svg>
