<svg id="Groupe_19" data-name="Groupe 19" xmlns="http://www.w3.org/2000/svg" width="50.909" height="34.706" viewBox="0 0 50.909 34.706">
  <path id="Tracé_6" data-name="Tracé 6" d="M14.647,271.788a1.033,1.033,0,0,1-1.037,1.037H1.037a1.037,1.037,0,1,1,0-2.073H13.611A1.04,1.04,0,0,1,14.647,271.788Z" transform="translate(0 -250.786)" fill="#ffc700"/>
  <path id="Tracé_7" data-name="Tracé 7" d="M35.046,225.771A1.047,1.047,0,0,1,34,226.8l-12.574-.073a1.037,1.037,0,0,1,.01-2.073h.01l12.574.073A1.027,1.027,0,0,1,35.046,225.771Z" transform="translate(-18.284 -209.464)" fill="#ffc700"/>
  <path id="Tracé_8" data-name="Tracé 8" d="M55.347,180.288a1.04,1.04,0,0,1-1.037,1.037H41.737a1.037,1.037,0,0,1,0-2.073H54.311A1.04,1.04,0,0,1,55.347,180.288Z" transform="translate(-36.481 -168.771)" fill="#ffc700"/>
  <path id="Tracé_9" data-name="Tracé 9" d="M55.693,303.482a1.04,1.04,0,0,1-1.037,1.037h-3.12a1.04,1.04,0,0,1-1.037-1.037v-3.794a1.037,1.037,0,1,1,2.073,0v2.757h2.084A1.04,1.04,0,0,1,55.693,303.482Z" transform="translate(-45.265 -275.793)" fill="#fff"/>
  <path id="Tracé_10" data-name="Tracé 10" d="M355.269,173.53l-3.12-2.809a1.006,1.006,0,0,0-.694-.27h-5.318a1.04,1.04,0,0,0-1.037,1.037v8.5a1.04,1.04,0,0,0,1.037,1.037h8.438a1.04,1.04,0,0,0,1.037-1.037V174.3A1.037,1.037,0,0,0,355.269,173.53Zm-1.731,5.422h-6.365v-6.437h3.877l2.488,2.239Z" transform="translate(-309.326 -160.883)" fill="#fff"/>
  <path id="Tracé_11" data-name="Tracé 11" d="M96.174,90.114l-.083,15.715a1.031,1.031,0,0,1-1.037,1.026h-2.1a1.037,1.037,0,0,1,0-2.073h1.078L94.1,90.59l-6.759-5.6H78.986V104.8H81.07a1.037,1.037,0,0,1,0,2.073H68.413a1.037,1.037,0,1,1,0-2.073h8.5V80.224H52.573v6.551a1.037,1.037,0,0,1-2.073,0V79.188a1.04,1.04,0,0,1,1.037-1.037h26.4a1.04,1.04,0,0,1,1.037,1.037v3.732H87.7a1.021,1.021,0,0,1,.663.238l7.422,6.147A1.1,1.1,0,0,1,96.174,90.114Z" transform="translate(-45.265 -78.151)" fill="#fff"/>
  <path id="Tracé_12" data-name="Tracé 12" d="M116.606,322.951a4.7,4.7,0,0,0-3.317,1.368,4.606,4.606,0,0,0,0,6.593,4.719,4.719,0,0,0,3.317,1.368,4.665,4.665,0,0,0,0-9.33Zm0,7.256a2.592,2.592,0,1,1,0-5.183,2.592,2.592,0,0,1,0,5.183Z" transform="translate(-100.3 -297.574)" fill="#fff"/>
  <path id="Tracé_13" data-name="Tracé 13" d="M360.806,322.951a4.7,4.7,0,0,0-3.317,1.368,4.606,4.606,0,0,0,0,6.593,4.719,4.719,0,0,0,3.317,1.368,4.665,4.665,0,0,0,0-9.33Zm0,7.256a2.592,2.592,0,1,1,0-5.183,2.592,2.592,0,0,1,0,5.183Z" transform="translate(-319.186 -297.574)" fill="#fff"/>
</svg>
