<svg xmlns="http://www.w3.org/2000/svg" width="5450.092" height="3715.972" viewBox="0 0 5450.092 3715.972">
  <path id="Icon_material-remove-red-eye" data-name="Icon material-remove-red-eye" d="M2726.546,6.75C1487.889,6.75,430.075,777.195,1.5,1864.736,430.076,2952.277,1487.889,3722.722,2726.546,3722.722s2296.47-770.445,2725.046-1857.986C5023.017,777.195,3965.2,6.75,2726.546,6.75Zm0,3096.643c-683.739,0-1238.657-554.918-1238.657-1238.657S2042.807,626.079,2726.546,626.079,3965.2,1181,3965.2,1864.736,3410.285,3103.393,2726.546,3103.393Zm0-1981.851c-411.234,0-743.194,331.96-743.194,743.195s331.96,743.194,743.194,743.194,743.194-331.96,743.194-743.194S3137.78,1121.542,2726.546,1121.542Z" transform="translate(-1.5 -6.75)" fill="#fff"/>
</svg>
