<svg xmlns="http://www.w3.org/2000/svg" width="29.533" height="34.681" viewBox="0 0 29.533 34.681"><defs><style>.a{fill:#fff;}.b{fill:#ffc700;}</style></defs><path class="a" d="M29.5,9.409V9.382c-.015-.333-.025-.686-.031-1.078a3.676,3.676,0,0,0-3.461-3.6A14.263,14.263,0,0,1,16.3.612L16.275.59a2.219,2.219,0,0,0-3.016,0l-.022.021A14.264,14.264,0,0,1,3.529,4.7,3.675,3.675,0,0,0,.068,8.3c-.006.389-.016.742-.031,1.077l0,.063c-.078,4.066-.174,9.126,1.519,13.719a17.464,17.464,0,0,0,4.19,6.526,21.918,21.918,0,0,0,8.2,4.85,2.535,2.535,0,0,0,.336.092,2.482,2.482,0,0,0,.976,0,2.539,2.539,0,0,0,.337-.092,21.932,21.932,0,0,0,8.19-4.852,17.49,17.49,0,0,0,4.19-6.528C29.672,18.552,29.576,13.483,29.5,9.409ZM26.063,22.455c-1.785,4.841-5.43,8.166-11.143,10.163a.523.523,0,0,1-.065.017.457.457,0,0,1-.179,0,.514.514,0,0,1-.064-.017C8.895,30.624,5.248,27.3,3.463,22.46,1.9,18.227,1.991,13.581,2.07,9.483V9.461c.016-.352.026-.721.032-1.126a1.634,1.634,0,0,1,1.54-1.6A17.855,17.855,0,0,0,9.7,5.4a15.855,15.855,0,0,0,4.939-3.318.188.188,0,0,1,.252,0A15.861,15.861,0,0,0,19.831,5.4a17.855,17.855,0,0,0,6.061,1.333,1.633,1.633,0,0,1,1.539,1.6c.006.407.017.776.033,1.126C27.542,13.563,27.628,18.212,26.063,22.455Zm0,0" transform="translate(0 0.001)"/><path class="b" d="M99.041,128.41a8.643,8.643,0,1,0,8.643,8.643A8.653,8.653,0,0,0,99.041,128.41Zm0,15.251a6.608,6.608,0,1,1,6.608-6.608A6.615,6.615,0,0,1,99.041,143.661Zm0,0" transform="translate(-84.275 -119.712)"/><path class="b" d="M160.514,212.289,156.5,216.3l-1.09-1.09a1.018,1.018,0,1,0-1.439,1.439l1.809,1.809a1.018,1.018,0,0,0,1.439,0l4.734-4.734a1.018,1.018,0,0,0-1.439-1.439Zm0,0" transform="translate(-143.264 -197.632)"/></svg>